
        <svg xmlns="http://www.w3.org/2000/svg" xmlns:xlink="http://www.w3.org/1999/xlink" version="1.1" width="3214.285714285714" height="2222.364670395781" viewBox="0 0 3214.285714285714 2222.364670395781">
			
			<g transform="scale(10.714285714285717) translate(10, 10)">
				<defs id="SvgjsDefs1492"/><g id="SvgjsG1493" featureKey="mugSzh-0" transform="matrix(1.5953485564927083,0,0,1.5953485564927083,60.730647550040366,-25.75051311450241)" fill="#000"><path xmlns="http://www.w3.org/2000/svg" d="M91.257,26.104l-0.197-0.641c-0.004-0.013-0.014-0.021-0.018-0.032c-0.165-0.521-0.32-1.196-0.375-1.676  c-0.274-2.39-1.199-4.413-2.826-6.186c-1.033-1.127-3.368-0.906-6.314-0.498l-0.511,0.069c-0.904,0.121-1.595,0.81-1.724,1.753  c-0.291,2.113-0.806,5.97,4.531,7.985c0.293,1.266,0.475,2.56,0.645,3.818c0.176,1.302,0.357,2.648,0.668,3.962  c0.113,0.479,0.064,0.906-0.152,1.348c-0.509,1.032-0.75,2.259-0.984,3.445c-0.138,0.701-0.287,1.461-0.484,2.033  c-1.361-0.559-2.946-0.876-4.584-0.876c-2.186,0-4.247,0.533-5.81,1.474c-0.05,0.004-0.099,0.007-0.149,0.009  c-1.58-1.08-3.885-1.732-6.386-1.732c-2.735,0-5.169,0.764-6.73,1.984c-0.139-0.007-0.281-0.009-0.415-0.023  c-1.604-0.18-2.795-1.634-2.656-3.241l0.291-3.394c0.682-0.225,1.336-0.909,1.75-1.882c0.568-1.33,0.438-2.565-0.28-3.102  c0.043-0.358,0.067-0.721,0.067-1.088c0-5.703-3.841-10.344-8.563-10.344c-4.721,0-8.563,4.641-8.563,10.344  c0,0.205,0.021,0.405,0.035,0.607c-0.458,0.568-0.611,1.537-0.346,2.64c0.3,1.246,1.003,2.119,1.8,2.291l0.238,4.815  c0.042,0.844-0.39,1.559-1.155,1.915l-1.895,0.882c-1.679-1.887-4.499-3.027-7.623-3.027c-2.274,0-4.383,0.636-6.014,1.693  c-1.521-1.082-3.552-1.692-5.694-1.692c-1.453,0-2.84,0.285-4.06,0.799c-0.348-0.629-0.481-1.326-0.651-2.206l-0.114-0.58  c-0.192-0.942,0.216-2.44,0.515-3.534l1.878-6.968c0.128-0.187,0.751-0.553,1.211-0.823c1.552-0.909,3.897-2.283,4.547-5.248  c0.01-0.044,0.017-0.089,0.021-0.135c0.059-0.744,0.239-3.009-1.422-3.683c-2.788-1.132-3.779-1.468-6.126-1.037  c-0.874,0.185-1.4,0.682-2.06,1.306c-1.234,1.167-1.934,2.553-2.14,4.237c-0.095,0.781-0.185,1.667-0.161,2.512l-0.299,0.512  C8.236,31.272,5.009,36.784,4.56,46.451c-0.047,1.017,0.394,1.946,1.209,2.551c6.016,4.467,12.857,6.5,20.996,6.231  c1.194-0.145,1.411,0.085,1.521,0.321c0.987,4.275,2.623,7.408,4.206,10.438c0.439,0.841,0.879,1.683,1.307,2.551  c1.247,2.533,1.786,4.921,1.747,7.743c-0.035,2.582-0.13,5.105-0.792,7.572h27.635c-0.062-1.156-0.125-2.544-0.188-3.931  l-0.035-0.771c-0.103-2.266,0.206-4.222,1.002-6.345c1.638-4.372,3.947-8.907,5.803-12.551c0.91-1.787,1.695-3.33,2.248-4.55  c0-0.003,0.002-0.004,0.004-0.006c0.069-0.153,0.125-0.229,0.129-0.255c0.152,0.028,0.483,0.206,0.688,0.316  c0.39,0.21,0.831,0.447,1.316,0.521c1.021,0.157,1.994,0.235,2.955,0.235c1.466,0,2.903-0.184,4.434-0.557  c4.354-1.063,8.511-2.843,12.356-5.292c1.372-0.874,2.189-2.248,2.304-3.869C95.813,40.94,93.071,32.012,91.257,26.104z   M51.719,78.672c-0.144,0.221-0.384,0.341-0.629,0.341c-0.141,0-0.283-0.039-0.409-0.121c-0.654-0.427-1.333-0.441-2.137-0.049  c-0.373,0.182-0.821,0.027-1.003-0.345s-0.027-0.821,0.345-1.003c1.271-0.621,2.52-0.573,3.613,0.139  C51.847,77.86,51.944,78.325,51.719,78.672z M58.499,72.36c-0.111,0.398-0.522,0.631-0.924,0.522  c-1.596-0.444-4.168-0.248-6.891-0.04c-0.128,0.01-0.257,0.018-0.386,0.027c0.007,0.558,0.028,1.127,0.069,1.714  c0.029,0.413-0.283,0.771-0.696,0.8c-0.018,0.001-0.036,0.002-0.053,0.002c-0.39,0-0.72-0.303-0.747-0.698  c-0.041-0.584-0.061-1.152-0.069-1.713c-1.006,0.066-2.005,0.119-2.964,0.119c-2.056,0-3.934-0.221-5.346-0.956  c-0.368-0.191-0.51-0.644-0.319-1.012c0.19-0.368,0.646-0.51,1.011-0.318c1.747,0.91,4.716,0.856,7.629,0.665  c0.031-1.26,0.109-2.477,0.192-3.665c0.041-0.579,0.081-1.163,0.116-1.757c-1.746-0.058-3.792,0.286-6.77,1.723  c-0.105,0.051-0.216,0.074-0.325,0.074c-0.279,0-0.547-0.156-0.676-0.424c-0.18-0.373-0.023-0.821,0.35-1.002  c3.267-1.576,5.563-1.939,7.487-1.872c0.048-1.398,0.044-2.858-0.096-4.449c-0.037-0.412,0.269-0.776,0.681-0.813  c0.417-0.034,0.777,0.269,0.813,0.682c0.15,1.699,0.151,3.242,0.098,4.714c0.523,0.072,1.028,0.165,1.529,0.257  c1.611,0.296,3.137,0.577,5.256,0.229c0.407-0.068,0.795,0.212,0.861,0.619c0.066,0.409-0.211,0.795-0.619,0.861  c-2.377,0.39-4.102,0.072-5.77-0.234c-0.441-0.081-0.879-0.16-1.325-0.226c-0.035,0.581-0.074,1.154-0.113,1.722  c-0.081,1.165-0.156,2.298-0.188,3.455c0.085-0.007,0.172-0.014,0.256-0.02c2.857-0.218,5.556-0.425,7.407,0.09  C58.376,71.548,58.609,71.962,58.499,72.36z M66.738,55.208c-1.866,2.753-3.841,4.271-5.644,5.079  c0.123,0.166,0.211,0.358,0.211,0.577c0,0.566-0.486,1.027-1.084,1.027c-0.575,0-1.037-0.431-1.071-0.968  c-0.575,0.121-1.118,0.182-1.61,0.195c-0.087,0.003-0.174,0.004-0.26,0.004c-2.98,0-5.857-1.492-8.223-4.217  c-1.606,2.066-4.724,4.016-8.148,4.067c-0.046,0-0.093,0.001-0.141,0.001c-0.079,0-0.162-0.004-0.242-0.007  c0.006,0.045,0.028,0.085,0.028,0.131c0,0.566-0.486,1.027-1.084,1.027s-1.084-0.461-1.084-1.027c0-0.148,0.036-0.288,0.096-0.415  c-2.25-0.578-4.835-2.156-7.071-5.886c-0.213-0.355-0.098-0.816,0.257-1.029c0.354-0.213,0.815-0.098,1.029,0.258  c2.165,3.612,5.009,5.469,8.189,5.447c3.269-0.049,6.182-2.089,7.355-4.036v-3.213c0-0.414,0.336-0.75,0.75-0.75  s0.75,0.336,0.75,0.75v3.164c2.217,2.806,4.98,4.303,7.755,4.231c2.961-0.085,5.728-1.902,7.999-5.254  c0.233-0.343,0.7-0.431,1.042-0.2C66.881,54.398,66.97,54.865,66.738,55.208z"/></g><g id="SvgjsG1494" featureKey="PPkF4s-0" transform="matrix(2.376103110771566,0,0,2.376103110771566,-2.1384952923257705,116.40461654751134)" fill="#000"><path d="M4.86 16.87 q1.42 0.57 2.6 0.57 q1.24 0 1.97 -0.48 t0.73 -1.14 q0 -0.54 -0.43 -0.88 t-1.09 -0.51 t-1.74 -0.37 q-1.44 -0.24 -2.64 -0.62 t-2.18 -1.32 t-0.98 -2.54 q0 -2.36 1.73 -3.39 t4.07 -1.03 q1.8 0 3.13 0.49 t2.65 1.47 l-1.76 2.4 q-0.98 -0.7 -2.04 -1.1 t-2.1 -0.4 q-0.92 0 -1.72 0.33 t-0.8 1.11 q0 0.48 0.41 0.77 t0.9 0.42 t1.59 0.37 l0.72 0.14 q1.66 0.32 2.75 0.71 t1.89 1.31 t0.8 2.56 q0 2.22 -1.57 3.38 t-4.25 1.16 q-3.92 0 -6.6 -2.28 l1.68 -2.42 q0.86 0.72 2.28 1.29 z M13.620000000000001 9.04 l3.18 0 l1.84 4.88 l2.66 -5.48 l2.7 5.5 l1.9 -4.9 l3.16 0 l-4.72 11.42 l-3.04 -5.84 l-3 5.84 z M33.55 19.74 q-1.37 -0.54 -2.35 -1.83 t-0.98 -3.37 t0.99 -3.36 t2.37 -1.82 t2.62 -0.54 q1.44 0 2.74 0.64 t2.13 1.88 t0.87 2.94 q0 0.52 -0.02 0.9 t-0.04 0.48 l-8.68 0 q0.24 1.16 1.2 1.58 t1.8 0.42 q1.08 0 1.72 -0.39 t1.1 -0.89 l2.32 1.34 q-1.88 2.56 -5.14 2.56 q-1.28 0 -2.65 -0.54 z M34.16 12.05 q-0.78 0.61 -0.88 1.49 l5.5 0 q-0.06 -0.52 -0.4 -1 t-0.91 -0.79 t-1.29 -0.31 q-1.24 0 -2.02 0.61 z M52.7 18.9 q-0.38 0.52 -1.31 0.93 t-2.03 0.41 q-1.7 0 -2.95 -0.76 t-1.91 -2.07 t-0.66 -2.91 t0.66 -2.91 t1.91 -2.07 t2.95 -0.76 q1.14 0 2.01 0.39 t1.33 0.99 l0 -1.14 l2.96 0 l0 11 l-2.96 0 l0 -1.1 z M52 12.25 q-0.82 -0.87 -2.2 -0.87 q-1.4 0 -2.21 0.87 t-0.81 2.25 q0 1.34 0.83 2.22 t2.19 0.88 q1.4 0 2.21 -0.83 t0.81 -2.27 q0 -1.38 -0.82 -2.25 z M62.32 16.08 q0 0.7 0.24 1.17 t1.12 0.47 q0.4 0 0.76 -0.04 l0 2.52 q-0.72 0.08 -1.34 0.08 q-1.28 0 -2.07 -0.21 t-1.23 -0.81 t-0.44 -1.72 l0 -6.1 l-1.34 0 l0 -2.62 l1.34 0 l0 -2.94 l2.96 0 l0 2.94 l2.2 0 l0 2.62 l-2.2 0 l0 4.64 z M77.31 11.22 q-0.51 0.8 -1.33 1.14 q1 0.34 1.72 1.3 t0.72 2.1 q0 2.26 -1.44 3.25 t-3.68 0.99 l-6.32 0 l0 -14.62 l6.08 0 q4.76 0 4.76 4.06 q0 0.98 -0.51 1.78 z M73.12 11.18 q0.78 0 1.15 -0.48 t0.37 -1.14 q0 -0.58 -0.44 -1.01 t-1.06 -0.43 l-2.98 0 l0 3.06 l2.96 0 z M74.74 16.78 q0.52 -0.48 0.52 -1.18 t-0.52 -1.18 t-1.5 -0.48 l-3.08 0 l0 3.32 l3.14 0 q0.92 0 1.44 -0.48 z M89.22 18.9 q-0.38 0.52 -1.31 0.93 t-2.03 0.41 q-1.7 0 -2.95 -0.76 t-1.91 -2.07 t-0.66 -2.91 t0.66 -2.91 t1.91 -2.07 t2.95 -0.76 q1.14 0 2.01 0.39 t1.33 0.99 l0 -1.14 l2.96 0 l0 11 l-2.96 0 l0 -1.1 z M88.52 12.25 q-0.82 -0.87 -2.2 -0.87 q-1.4 0 -2.21 0.87 t-0.81 2.25 q0 1.34 0.83 2.22 t2.19 0.88 q1.4 0 2.21 -0.83 t0.81 -2.27 q0 -1.38 -0.82 -2.25 z M97.62 19.51 q-1.38 -0.77 -2.19 -2.09 t-0.81 -2.88 t0.81 -2.87 t2.18 -2.08 t2.99 -0.77 q1.74 0 3.15 0.83 t2.25 2.37 l-2.7 1.06 q-0.48 -0.82 -1.18 -1.23 t-1.52 -0.41 q-1.3 0 -2.15 0.88 t-0.85 2.22 t0.86 2.22 t2.16 0.88 q1.8 0 2.78 -1.6 l2.54 1 q-1.58 3.24 -5.32 3.24 q-1.62 0 -3 -0.77 z M111.16000000000001 4.880000000000001 l0 8.8 l3.74 -4.62 l3.66 0 l-4.42 5.12 l4.6 5.82 l-3.62 0 l-2.88 -3.6 l-1.08 1.24 l0 2.36 l-3 0 l0 -15.12 l3 0 z"/></g><g id="SvgjsG1495" featureKey="uwAHB0-0" transform="matrix(0.8347245216824961,0,0,0.8347245216824961,34.38063447967956,170.42571079934183)" fill="#000"><path d="M3.26 5.84 l0 14.16 l-1.32 0 l0 -14.16 l1.32 0 z M21.584 12.08 q1.54 0 2.38 -0.69 t0.84 -1.83 t-0.82 -1.82 t-2.44 -0.7 l-2.86 0 l0 5.04 l2.9 0 z M21.183999999999997 5.84 q4.9 0 4.94 3.72 q0 3.14 -3.62 3.64 l4.12 6.8 l-1.5 0 l-3.98 -6.72 l-2.46 0 l0 6.72 l-1.32 0 l0 -14.16 l3.82 0 z M39.848 12.92 q0 2.7 1.66 4.45 t4.34 1.79 q2.7 0 4.34 -1.77 t1.66 -4.47 q0 -2.74 -1.64 -4.47 t-4.38 -1.77 q-2.68 0 -4.32 1.76 t-1.66 4.48 z M45.848 5.48 q2.16 0 3.82 0.95 t2.57 2.66 t0.93 3.83 q0 3.26 -2.06 5.33 t-5.26 2.11 q-3.22 0 -5.24 -2.09 t-2.08 -5.35 q0.02 -3.26 2.04 -5.32 t5.28 -2.12 z M68.05199999999999 5.84 l8.62 12.4 l0.04 0 l0 -12.4 l1.32 0 l0 14.16 l-1.7 0 l-8.62 -12.4 l-0.04 0 l0 12.4 l-1.32 0 l0 -14.16 l1.7 0 z M109.22 15.04 l6.5 0 l-3.2 -7.76 z M113.26 5.84 l5.96 14.16 l-1.48 0 l-1.54 -3.76 l-7.5 0 l-1.6 3.76 l-1.38 0 l6.18 -14.16 l1.36 0 z M135.44400000000002 18.8 q3.04 0 4.8 -1.54 t1.78 -4.24 q0 -2.88 -1.75 -4.42 t-4.89 -1.56 l-2.76 0 l0 11.76 l2.82 0 z M135.72400000000002 5.84 q3.56 0 5.57 1.92 t2.05 5.26 q0 1.96 -0.89 3.55 t-2.56 2.51 t-4.09 0.92 l-4.5 0 l0 -14.16 l4.42 0 z M160.48800000000003 18.8 q3.04 0 4.8 -1.54 t1.78 -4.24 q0 -2.88 -1.75 -4.42 t-4.89 -1.56 l-2.76 0 l0 11.76 l2.82 0 z M160.76800000000003 5.84 q3.56 0 5.57 1.92 t2.05 5.26 q0 1.96 -0.89 3.55 t-2.56 2.51 t-4.09 0.92 l-4.5 0 l0 -14.16 l4.42 0 z M182.89200000000002 5.84 l0 14.16 l-1.32 0 l0 -14.16 l1.32 0 z M203.39600000000004 5.48 q3.14 0 4.88 2.22 l-1.08 0.9 q-0.6 -0.9 -1.6 -1.41 t-2.2 -0.51 q-2.64 0 -4.3 1.74 t-1.7 4.5 q0 2.74 1.67 4.47 t4.33 1.77 q1.14 0 2.32 -0.57 t1.86 -1.63 l1.08 0.82 q-1.88 2.58 -5.26 2.58 q-3.28 -0.02 -5.27 -2.12 t-2.05 -5.32 q0 -3.26 2.05 -5.33 t5.27 -2.11 z M230.60000000000005 5.84 l0 1.2 l-4.84 0 l0 12.96 l-1.32 0 l0 -12.96 l-4.84 0 l0 -1.2 l11 0 z M247.04400000000004 5.48 q2.46 0 3.86 1.78 l-1.14 0.82 q-1.04 -1.4 -2.76 -1.4 q-1.4 0 -2.27 0.72 t-0.91 1.96 q0 1.08 0.66 1.75 t2.3 1.13 q2.16 0.64 2.88 1.13 t1.09 1.21 t0.37 1.8 q0 1.72 -1.23 2.83 t-3.17 1.15 q-3.06 0 -4.6 -2.14 l1.26 -0.84 q1.06 1.76 3.24 1.78 q1.42 0 2.3 -0.79 t0.88 -1.99 q0 -0.7 -0.25 -1.15 t-0.76 -0.78 t-1.3 -0.6 t-1.85 -0.63 q-1.6 -0.52 -2.37 -1.46 t-0.77 -2.4 q0 -1.72 1.29 -2.8 t3.25 -1.08 z"/></g>
			</g>
		</svg>
	